<svg version="1.2" xmlns="http://www.w3.org/2000/svg" viewBox="0 0 1067 1067" width="1067" height="1067">
	<style>
		.s0 { fill: #242938 } 
		.s1 { fill: #ff9100 } 
		.s2 { fill: #ffc400 } 
		.s3 { fill: #dd2c00 } 
	</style>
	<path fill-rule="evenodd" class="s0" d="m250.53 0.53h566.94c138.07 0 250 111.93 250 250v566.94c0 138.07-111.93 250-250 250h-566.94c-138.07 0-250-111.93-250-250v-566.94c0-138.07 111.93-250 250-250z"/>
	<path class="s1" d="m426.8 869.51c29.83 12 62.2 19.13 96.18 20.32 46 1.6 89.73-7.91 128.83-25.97-46.89-18.42-89.35-45.36-125.59-78.86-23.49 37.62-58.24 67.33-99.42 84.51z"/>
	<path class="s2" d="m526.21 785.02c-82.72-76.52-132.91-187.26-128.67-308.72q0.22-5.91 0.59-11.82c-14.82-3.84-30.28-6.17-46.2-6.73-22.79-0.8-44.85 2.03-65.68 7.9-22.09 38.68-35.41 83.07-37.07 130.61-4.29 122.7 69.96 229.9 177.61 273.26 41.19-17.18 75.93-46.86 99.42-84.5z"/>
	<path class="s1" d="m526.22 785.01c19.23-30.78 30.89-66.86 32.25-105.74 3.57-102.27-65.18-190.25-160.34-214.8q-0.37 5.91-0.58 11.83c-4.25 121.46 45.94 232.2 128.67 308.71z"/>
	<path class="s3" d="m547.83 177c-54.2 43.42-96.99 100.66-122.88 166.61-14.83 37.78-24.14 78.35-26.86 120.89 95.16 24.55 163.91 112.52 160.34 214.79-1.36 38.88-13.06 74.93-32.26 105.75 36.24 33.53 78.71 60.43 125.59 78.85 94.12-43.5 160.89-137.11 164.76-247.83 2.5-71.74-25.06-135.68-64.01-189.64-41.13-57.08-204.68-249.42-204.68-249.42z"/>
</svg>